<?xml version="1.0" encoding="UTF-8"?>
<svg id="_Image" data-name="&amp;gt; Image" xmlns="http://www.w3.org/2000/svg" viewBox="0 0 31.88 35.34">
  <defs>
    <style>
      .cls-1 {
        stroke-width: 0px;
      }
    </style>
  </defs>
  <path class="cls-1" d="m31.88,20.81c-4.58,2.09-9.17,4.18-13.75,6.28-5.73,2.63-11.46,5.26-17.2,7.88-.28.13-.57.23-.94.37v-7.03c8.15-3.5,16.3-7,24.72-10.61C16.3,14.08,8.16,10.59,0,7.09V0c10.7,4.9,21.29,9.76,31.88,14.61v6.2Zm-1.5-.94v-4.33C20.75,11.12,11.15,6.71,1.46,2.27v3.85c1.19.52,2.35,1.03,3.51,1.53,6.38,2.73,12.76,5.46,19.14,8.19.4.17.81.33,1.18.56.94.6.94,2,0,2.6-.26.17-.56.29-.86.41-6.34,2.72-12.69,5.43-19.03,8.15-1.34.57-2.67,1.17-3.92,1.71v3.85c9.69-4.44,19.27-8.84,28.9-13.26Z"/>
</svg>