<?xml version="1.0" encoding="UTF-8"?>
<svg id="_Image" data-name="&amp;lt; Image" xmlns="http://www.w3.org/2000/svg" viewBox="0 0 31.9 35.28">
  <defs>
    <style>
      .cls-1 {
        stroke-width: 0px;
      }
    </style>
  </defs>
  <path class="cls-1" d="m31.9,7.15c-.3.08-.62.13-.9.25-7.44,3.25-14.87,6.52-22.3,9.78-.25.11-.5.23-.88.41.29.17.47.31.67.39,7.5,3.3,15.01,6.59,22.52,9.88.28.12.6.18.9.27v7.15c-2.27-1.03-4.55-2.04-6.81-3.09-7.94-3.68-15.88-7.38-23.82-11.08-.43-.2-.84-.42-1.26-.63v-5.72c.64-.31,1.27-.63,1.91-.93C11.54,9.37,21.17,4.89,30.8.43c.36-.16.73-.28,1.1-.43v7.15Zm-1.49,22.04c-5.38-2.36-10.69-4.69-15.99-7.01-2.36-1.04-4.72-2.07-7.08-3.11-.66-.29-.97-.79-.95-1.5.01-.67.35-1.12.95-1.38.8-.35,1.59-.71,2.39-1.06,4.87-2.13,9.74-4.26,14.6-6.39,2.03-.89,4.05-1.8,6.07-2.69v-3.84C20.69,6.73,11.06,11.2,1.49,15.66v3.95c9.64,4.48,19.23,8.94,28.91,13.44v-3.86Z"/>
</svg>